HIERARCHY
ROOT Hips
{
	OFFSET -13.091600 -28.302996 44.698402
	CHANNELS 6 Xposition Yposition Zposition Zrotation Xrotation Yrotation
	JOINT Chest
	{
		OFFSET -0.673000 0.623899 5.369202
		CHANNELS 6 Xposition Yposition Zposition Zrotation Xrotation Yrotation
		JOINT Chest2
		{
			OFFSET 0.000000 0.000000 4.415001
			CHANNELS 6 Xposition Yposition Zposition Zrotation Xrotation Yrotation
			JOINT Neck
			{
				OFFSET 0.000000 0.000002 10.273300
				CHANNELS 6 Xposition Yposition Zposition Zrotation Xrotation Yrotation
				JOINT Head
				{
					OFFSET 0.000000 0.000000 2.173897
					CHANNELS 6 Xposition Yposition Zposition Zrotation Xrotation Yrotation
					End Site
					{
						OFFSET 0.000000 0.000000 9.961800
					}
				}
			}
			JOINT LeftCollar
			{
				OFFSET 2.359900 -0.565201 5.928101
				CHANNELS 6 Xposition Yposition Zposition Zrotation Xrotation Yrotation
				JOINT LeftShoulder
				{
					OFFSET 5.443700 0.000000 0.000000
					CHANNELS 6 Xposition Yposition Zposition Zrotation Xrotation Yrotation
					JOINT LeftElbow
					{
						OFFSET 0.000000 0.000000 -10.615799
						CHANNELS 6 Xposition Yposition Zposition Zrotation Xrotation Yrotation
						JOINT LeftWrist
						{
							OFFSET 0.000000 -0.000002 -13.110302
							CHANNELS 6 Xposition Yposition Zposition Zrotation Xrotation Yrotation
							End Site
							{
								OFFSET 0.000000 0.000000 -2.173901
							}
						}
					}
				}
			}
			JOINT RightCollar
			{
				OFFSET -2.636600 -1.718800 6.889698
				CHANNELS 6 Xposition Yposition Zposition Zrotation Xrotation Yrotation
				JOINT RightShoulder
				{
					OFFSET -4.139101 0.000000 0.000000
					CHANNELS 6 Xposition Yposition Zposition Zrotation Xrotation Yrotation
					JOINT RightElbow
					{
						OFFSET 0.000000 0.000000 -10.471802
						CHANNELS 6 Xposition Yposition Zposition Zrotation Xrotation Yrotation
						JOINT RightWrist
						{
							OFFSET 0.000000 0.000000 -12.281898
							CHANNELS 6 Xposition Yposition Zposition Zrotation Xrotation Yrotation
							End Site
							{
								OFFSET 0.000000 -0.000002 -2.173901
							}
						}
					}
				}
			}
		}
	}
	JOINT LeftHip
	{
		OFFSET 2.273400 0.176701 -2.518002
		CHANNELS 6 Xposition Yposition Zposition Zrotation Xrotation Yrotation
		JOINT LeftKnee
		{
			OFFSET 0.000000 -0.000002 -20.456402
			CHANNELS 6 Xposition Yposition Zposition Zrotation Xrotation Yrotation
			JOINT LeftAnkle
			{
				OFFSET 0.000000 -0.000002 -16.635300
				CHANNELS 6 Xposition Yposition Zposition Zrotation Xrotation Yrotation
				End Site
				{
					OFFSET 0.000000 -8.812399 0.000001
				}
			}
		}
	}
	JOINT RightHip
	{
		OFFSET -1.914800 0.018101 -2.699299
		CHANNELS 6 Xposition Yposition Zposition Zrotation Xrotation Yrotation
		JOINT RightKnee
		{
			OFFSET 0.000000 -0.000002 -20.148901
			CHANNELS 6 Xposition Yposition Zposition Zrotation Xrotation Yrotation
			JOINT RightAnkle
			{
				OFFSET 0.000000 -0.000002 -16.838301
				CHANNELS 6 Xposition Yposition Zposition Zrotation Xrotation Yrotation
				End Site
				{
					OFFSET 0.000000 -8.328398 0.000001
				}
			}
		}
	}
}
MOTION
Frames: 10
Frame Time: 0.041667
-49.883995 -48.604992 44.542709 3236.150841 3.285556 -13.318235 -0.673002 0.623896 5.369205 4.662470 -1.454513 -12.937849 0.000003 0.000000 4.415007 0.926175 -1.006485 0.120465 -0.000002 -0.000001 10.273314 -48.359536 12.455623 32.036258 0.000005 -0.000008 2.173893 -2.158325 0.931910 -5.725838 2.359892 -0.565202 5.928112 14.575740 -5.646620 -32.903805 5.443702 -0.000001 -0.000004 -56.428154 333.752932 -143.512028 0.000007 -0.000004 -10.615804 940.382849 -158.350027 187.565915 -0.000001 0.000001 -13.110295 -2235.094712 182.245921 -544.074838 -2.636602 -1.718800 6.889713 166.774559 -158.281574 217.666217 -4.139093 -0.000001 0.000002 -260.316240 -46.593563 156.888817 0.000000 0.000005 -10.471797 -360.282998 -31.449145 -726.103805 0.000005 -0.000006 -12.281888 249.051701 179.053272 182.177988 2.273399 0.176700 -2.518003 -529.939952 -168.693884 -159.326839 -0.000003 0.000003 -20.456400 1243.258572 151.071285 -160.834726 -0.000008 -0.000006 -16.635303 -686.096710 6.797991 18.236404 -1.914801 0.018102 -2.699301 375.116967 184.859930 102.470084 0.000004 -0.000005 -20.148897 -1054.949492 -219.768467 64.721991 -0.000006 -0.000004 -16.838310 1029.813958 8.763966 5.527103
-49.925095 -48.557091 44.533607 3236.325913 3.194561 -13.413872 -0.673006 0.623903 5.369218 4.492974 -1.295514 -12.875426 -0.000001 -0.000002 4.415014 0.969697 -0.927416 0.131096 -0.000005 -0.000004 10.273294 -48.326385 12.405299 32.015740 0.000004 -0.000004 2.173894 -2.128273 0.928006 -5.685131 2.359901 -0.565205 5.928094 14.540030 -5.766053 -32.914712 5.443690 0.000002 -0.000001 -56.013439 333.888388 -143.265813 0.000006 0.000004 -10.615796 940.668734 -158.442220 187.557568 0.000004 -0.000007 -13.110276 -2235.021055 182.239146 -544.077624 -2.636600 -1.718801 6.889703 166.872177 -158.308362 217.743193 -4.139092 0.000001 0.000000 -260.360090 -46.698546 156.991215 0.000003 0.000001 -10.471798 -360.079131 -31.448964 -726.021788 0.000007 0.000010 -12.281900 248.926190 179.134169 182.143660 2.273395 0.176707 -2.517993 -530.048744 -168.701096 -159.299559 0.000001 -0.000005 -20.456398 1243.351463 151.044402 -160.852239 -0.000006 -0.000002 -16.635303 -686.242111 6.769701 18.090712 -1.914803 0.018107 -2.699291 375.340287 185.159243 102.482330 0.000001 -0.000006 -20.148901 -1055.129699 -220.078612 64.604437 -0.000003 -0.000009 -16.838306 1029.811554 8.748725 5.472680
-49.965195 -48.508892 44.523804 3236.456178 3.077557 -13.494694 -0.673000 0.623903 5.369211 4.359151 -1.106439 -12.825812 -0.000003 0.000002 4.415002 1.051438 -1.022408 0.123460 -0.000007 -0.000002 10.273322 -48.387160 12.448600 32.184087 -0.000010 -0.000004 2.173905 -2.077362 0.905699 -5.626459 2.359898 -0.565204 5.928113 14.473079 -5.657818 -32.918592 5.443694 0.000001 0.000001 -55.643492 334.022178 -143.096684 0.000006 -0.000002 -10.615791 940.885988 -158.561476 187.534728 0.000007 -0.000006 -13.110285 -2234.916580 182.229365 -544.077952 -2.636600 -1.718804 6.889718 166.988208 -158.480101 217.920710 -4.139091 0.000006 0.000007 -260.553576 -46.824027 156.978866 -0.000001 0.000000 -10.471794 -360.037576 -31.443015 -725.996708 0.000004 0.000000 -12.281907 248.887230 179.217183 182.110834 2.273405 0.176704 -2.518006 -530.112838 -168.737897 -159.288112 -0.000003 -0.000007 -20.456398 1243.441621 151.002601 -160.868550 -0.000000 -0.000003 -16.635294 -686.384998 6.777032 17.908823 -1.914795 0.018104 -2.699302 375.584753 185.477844 102.513182 0.000007 -0.000003 -20.148903 -1055.286739 -220.382802 64.471187 -0.000003 -0.000003 -16.838306 1029.803467 8.731686 5.449770
-50.005798 -48.459396 44.514103 3236.562401 2.956366 -13.570786 -0.673007 0.623906 5.369198 4.246480 -0.913686 -12.780919 -0.000003 -0.000008 4.415010 1.154355 -0.992799 0.134213 -0.000007 0.000001 10.273302 -48.409078 12.412902 32.249698 -0.000000 -0.000007 2.173896 -2.021281 0.888390 -5.577544 2.359897 -0.565199 5.928091 14.397024 -5.648713 -32.898600 5.443695 0.000002 -0.000001 -55.240695 334.195200 -142.939207 0.000002 0.000002 -10.615783 941.273724 -158.704705 187.565082 0.000001 -0.000005 -13.110310 -2234.918547 182.220527 -544.076969 -2.636604 -1.718801 6.889698 167.073981 -158.542556 218.003710 -4.139089 0.000008 0.000002 -260.752334 -46.900713 156.951491 -0.000002 -0.000005 -10.471798 -360.118282 -31.427647 -726.025067 -0.000000 -0.000010 -12.281900 248.972526 179.274256 182.072599 2.273394 0.176706 -2.518009 -530.105407 -168.781856 -159.274575 -0.000001 0.000000 -20.456392 1243.365451 150.949093 -160.828757 -0.000009 -0.000003 -16.635302 -686.440787 6.761832 17.758796 -1.914803 0.018101 -2.699304 375.837197 185.793139 102.545141 0.000001 -0.000003 -20.148905 -1055.502354 -220.498997 64.385864 0.000000 -0.000005 -16.838299 1029.693747 8.701434 5.283057
-50.045898 -48.409191 44.504005 3236.656385 2.837656 -13.640623 -0.673007 0.623894 5.369218 4.145900 -0.719756 -12.741279 0.000000 -0.000005 4.415007 1.284016 -1.010161 0.142550 -0.000007 -0.000009 10.273315 -48.441860 12.371988 32.363400 -0.000005 -0.000000 2.173905 -1.926958 0.883139 -5.560152 2.359897 -0.565204 5.928110 14.337002 -5.573799 -32.878239 5.443690 -0.000002 -0.000010 -54.885262 334.359808 -142.803819 0.000006 0.000000 -10.615785 941.662007 -158.832415 187.586706 0.000007 -0.000001 -13.110292 -2234.923356 182.211265 -544.079755 -2.636601 -1.718804 6.889705 167.095783 -158.591610 217.964901 -4.139089 -0.000009 0.000001 -260.864677 -46.844152 156.880047 0.000002 -0.000003 -10.471796 -360.217620 -31.374921 -726.038071 0.000000 0.000001 -12.281894 249.073503 179.347230 182.028954 2.273401 0.176697 -2.517991 -530.072076 -168.817141 -159.257294 -0.000004 -0.000003 -20.456400 1243.244037 150.875751 -160.779142 -0.000004 -0.000002 -16.635303 -686.478271 6.735893 17.617346 -1.914801 0.018092 -2.699289 376.092318 186.103667 102.572448 -0.000001 -0.000006 -20.148895 -1055.752175 -220.501715 64.322036 -0.000007 -0.000001 -16.838303 1029.514195 8.661890 5.051418
-50.084000 -48.359299 44.493408 3236.739877 2.677212 -13.683266 -0.672999 0.623894 5.369210 4.046916 -0.476578 -12.743717 -0.000002 -0.000005 4.415008 1.422907 -1.035764 0.151340 -0.000003 -0.000000 10.273292 -48.402272 12.338467 32.449177 -0.000006 -0.000009 2.173894 -1.862880 0.879345 -5.556050 2.359891 -0.565205 5.928096 14.272753 -5.464198 -32.827832 5.443692 0.000002 -0.000004 -54.343126 334.671756 -142.595895 0.000006 0.000007 -10.615795 942.082747 -158.953774 187.522611 0.000001 -0.000006 -13.110311 -2234.758994 182.191280 -544.092323 -2.636599 -1.718806 6.889694 167.103679 -158.660472 217.914194 -4.139089 0.000001 -0.000001 -260.900823 -46.767299 156.862562 -0.000001 0.000002 -10.471797 -360.339525 -31.311465 -726.045830 0.000003 0.000005 -12.281896 249.217320 179.421720 181.994871 2.273402 0.176695 -2.517998 -530.053607 -168.879815 -159.261515 -0.000001 -0.000006 -20.456400 1243.068747 150.793542 -160.717657 -0.000000 -0.000003 -16.635302 -686.480129 6.694908 17.522090 -1.914795 0.018095 -2.699296 376.346565 186.452731 102.630101 -0.000003 -0.000000 -20.148912 -1056.001778 -220.473206 64.254369 0.000005 -0.000005 -16.838297 1029.332020 8.626058 4.785073
-50.118698 -48.308800 44.481903 3236.809600 2.532919 -13.719607 -0.673007 0.623900 5.369197 3.965383 -0.247584 -12.770974 0.000005 -0.000008 4.414993 1.571221 -1.057566 0.161737 -0.000007 -0.000004 10.273302 -48.321338 12.311752 32.536081 -0.000006 0.000005 2.173888 -1.829224 0.883554 -5.554918 2.359893 -0.565201 5.928102 14.235310 -5.389550 -32.782664 5.443697 0.000002 -0.000006 -53.755423 335.024085 -142.297484 -0.000005 -0.000001 -10.615777 942.326229 -159.018647 187.354876 0.000002 0.000000 -13.110300 -2234.343719 182.162470 -544.133085 -2.636611 -1.718803 6.889701 167.113146 -158.681537 217.895315 -4.139095 0.000012 -0.000001 -260.890058 -46.707736 156.837645 0.000000 0.000008 -10.471800 -360.545933 -31.246401 -726.112274 0.000002 0.000017 -12.281907 249.459983 179.434684 181.974025 2.273398 0.176707 -2.518007 -530.039072 -168.917040 -159.258606 0.000000 -0.000005 -20.456398 1242.844171 150.710501 -160.643126 -0.000010 -0.000001 -16.635305 -686.445978 6.641092 17.478241 -1.914802 0.018107 -2.699300 376.595457 186.758313 102.673569 -0.000006 -0.000004 -20.148899 -1056.189417 -220.507521 64.156062 -0.000002 -0.000010 -16.838297 1029.188641 8.599305 4.600299
-50.151199 -48.257698 44.469902 3236.910140 2.438185 -13.778013 -0.673006 0.623895 5.369223 3.862713 -0.090075 -12.783102 0.000005 -0.000004 4.415001 1.727953 -1.077176 0.173033 0.000000 -0.000002 10.273306 -48.176791 12.307258 32.603765 0.000001 -0.000007 2.173891 -1.698044 0.876531 -5.502327 2.359893 -0.565198 5.928103 14.204986 -5.316914 -32.750146 5.443697 -0.000006 0.000003 -53.111462 335.414717 -141.923872 -0.000001 -0.000006 -10.615789 942.728719 -159.053058 187.213272 0.000000 -0.000004 -13.110281 -2234.003193 182.140067 -544.170897 -2.636601 -1.718802 6.889703 167.112558 -158.697765 217.861000 -4.139091 0.000004 0.000004 -260.725669 -46.636839 156.868709 -0.000003 0.000004 -10.471801 -360.634780 -31.171744 -726.150359 0.000003 -0.000002 -12.281907 249.709257 179.415081 181.979244 2.273397 0.176699 -2.517992 -530.065956 -168.898284 -159.214783 0.000000 -0.000011 -20.456398 1242.543205 150.655108 -160.561177 -0.000006 -0.000004 -16.635300 -686.348880 6.588853 17.511319 -1.914806 0.018099 -2.699289 376.797685 186.986032 102.674286 0.000005 -0.000002 -20.148909 -1056.406672 -220.375412 64.114275 0.000003 -0.000004 -16.838301 1028.981877 8.565690 4.249767
-50.180199 -48.207596 44.456703 3237.023576 2.377224 -13.858169 -0.673007 0.623897 5.369205 3.752629 0.016180 -12.776910 0.000001 -0.000011 4.415009 1.880969 -1.081202 0.185360 0.000001 -0.000001 10.273324 -48.005121 12.318767 32.677298 0.000004 -0.000002 2.173905 -1.675851 0.910269 -5.528583 2.359902 -0.565204 5.928110 14.200063 -5.296729 -32.759032 5.443696 -0.000002 -0.000004 -52.573315 335.713032 -141.503584 0.000002 0.000006 -10.615795 942.912970 -159.034384 187.040946 0.000001 0.000002 -13.110297 -2233.555351 182.120956 -544.220075 -2.636598 -1.718803 6.889715 167.102572 -158.680307 217.794543 -4.139089 -0.000015 0.000008 -260.539150 -46.508623 156.844830 0.000000 0.000003 -10.471806 -360.691416 -31.083351 -726.154567 -0.000006 0.000002 -12.281909 249.618061 179.575850 181.859428 2.273395 0.176704 -2.518005 -530.147699 -168.846210 -159.139446 0.000005 -0.000002 -20.456400 1242.274260 150.633511 -160.483737 -0.000010 -0.000002 -16.635303 -686.238176 6.545885 17.559984 -1.914801 0.018099 -2.699301 376.953851 187.129466 102.642655 -0.000009 -0.000004 -20.148903 -1056.548302 -220.277357 64.073185 -0.000007 -0.000003 -16.838301 1028.804730 8.537643 3.952582
-50.205795 -48.158699 44.444004 3237.133077 2.321601 -13.959028 -0.673004 0.623899 5.369208 3.645966 0.110901 -12.745151 -0.000002 -0.000002 4.415010 2.040610 -1.087607 0.193419 -0.000010 -0.000011 10.273314 -47.818704 12.356694 32.748107 0.000003 -0.000010 2.173892 -1.678333 0.938377 -5.529393 2.359895 -0.565202 5.928105 14.208294 -5.288531 -32.710257 5.443693 -0.000002 -0.000000 -52.187846 335.999927 -141.168904 -0.000002 -0.000005 -10.615788 943.041268 -159.036624 186.906105 0.000006 -0.000010 -13.110285 -2233.165866 182.105657 -544.266301 -2.636607 -1.718809 6.889709 167.079883 -158.737107 217.685929 -4.139090 0.000011 -0.000006 -260.338070 -46.341215 156.884473 -0.000003 -0.000007 -10.471795 -360.551835 -31.057843 -726.081730 0.000004 0.000008 -12.281904 249.743709 179.517958 181.842107 2.273402 0.176694 -2.518000 -530.204854 -168.803959 -159.038482 -0.000004 -0.000004 -20.456398 1242.000834 150.618485 -160.414192 -0.000008 -0.000008 -16.635300 -686.144630 6.519219 17.627233 -1.914792 0.018095 -2.699293 377.080073 187.233804 102.605110 0.000000 -0.000003 -20.148895 -1056.605239 -220.270595 64.019896 0.000003 -0.000006 -16.838301 1028.688234 8.518064 3.753604
